<mxfile host="app.diagrams.net" modified="2023-04-24T02:46:32.431Z" agent="Mozilla/5.0 (Windows NT 10.0; Win64; x64) AppleWebKit/537.36 (KHTML, like Gecko) Chrome/98.0.4758.102 Safari/537.36" version="21.2.1" etag="Vk55ZH20Fh-MB4ikqQK0" type="github">
  <diagram name="第 1 页" id="THO6oSwAaFKwetUPx5SE">
    <mxGraphModel>
      <root>
        <mxCell id="0" />
        <mxCell id="1" parent="0" />
      </root>
    </mxGraphModel>
  </diagram>
</mxfile>
